<svg width="16" height="18" viewBox="0 0 16 18" fill="none" xmlns="http://www.w3.org/2000/svg">
<path d="M13.1427 17.2751C12.1664 18.2227 11.0891 18.075 10.0623 17.6282C8.97072 17.1725 7.97275 17.1436 6.81987 17.6282C5.38418 18.2479 4.62219 18.0677 3.75753 17.2751C-1.12419 12.2493 -0.403642 4.5935 5.14459 4.30528C6.49022 4.37733 7.43234 5.04924 8.22495 5.10508C9.40304 4.8655 10.5307 4.17918 11.7917 4.26925C13.3066 4.39174 14.4397 4.9898 15.1963 6.06522C12.0799 7.93864 12.8185 12.0458 15.6808 13.1986C15.108 14.7028 14.373 16.1889 13.1409 17.2878L13.1427 17.2751ZM8.11686 4.25123C7.97095 2.01754 9.78133 0.180137 11.8637 0C12.1501 2.57596 9.52194 4.50343 8.11686 4.25123Z" fill="#BBBBBB"/>
</svg>
