<svg width="16" height="19" viewBox="0 0 16 19" fill="none" xmlns="http://www.w3.org/2000/svg">
<path d="M13.1427 17.7751C12.1664 18.7227 11.0891 18.575 10.0623 18.1282C8.97072 17.6725 7.97275 17.6436 6.81987 18.1282C5.38418 18.7479 4.62219 18.5677 3.75753 17.7751C-1.12419 12.7493 -0.403642 5.0935 5.14459 4.80528C6.49022 4.87733 7.43234 5.54924 8.22495 5.60508C9.40304 5.3655 10.5307 4.67918 11.7917 4.76925C13.3066 4.89174 14.4397 5.4898 15.1963 6.56522C12.0799 8.43864 12.8185 12.5458 15.6808 13.6986C15.108 15.2028 14.373 16.6889 13.1409 17.7878L13.1427 17.7751ZM8.11686 4.75123C7.97095 2.51754 9.78133 0.680137 11.8637 0.5C12.1501 3.07596 9.52194 5.00343 8.11686 4.75123Z" fill="white"/>
</svg>
