<svg width="18" height="19" viewBox="0 0 18 19" fill="none" xmlns="http://www.w3.org/2000/svg">
<path d="M0.75 1.60465V17.3946C0.750106 17.4289 0.760323 17.4623 0.779371 17.4908C0.798419 17.5193 0.82545 17.5415 0.857073 17.5547C0.888697 17.5678 0.923506 17.5714 0.957135 17.5648C0.990765 17.5583 1.02172 17.542 1.04611 17.5179L9.26774 9.50002L1.04611 1.4813C1.02172 1.45725 0.990765 1.44093 0.957135 1.4344C0.923506 1.42787 0.888697 1.43142 0.857073 1.44459C0.82545 1.45776 0.798419 1.47998 0.779371 1.50845C0.760323 1.53693 0.750106 1.57039 0.75 1.60465Z" fill="#3C2160"/>
<path d="M12.715 6.20539L2.40611 0.525834L2.39969 0.522218C2.2221 0.425791 2.05335 0.666055 2.1988 0.805874L10.2798 8.5329L12.715 6.20539Z" fill="#3C2160"/>
<path d="M2.19963 18.1941C2.05338 18.334 2.22213 18.5742 2.40052 18.4778L2.40695 18.4742L12.715 12.7946L10.2798 10.4663L2.19963 18.1941Z" fill="#3C2160"/>
<path d="M16.8766 8.49556L13.9979 6.91013L11.2911 9.50001L13.9979 12.0887L16.8766 10.5045C17.6597 10.0717 17.6597 8.92827 16.8766 8.49556Z" fill="#3C2160"/>
</svg>
