<svg width="18" height="18" viewBox="0 0 18 18" fill="none" xmlns="http://www.w3.org/2000/svg">
<path d="M17.8088 9.2025C17.8088 8.61 17.7563 8.0475 17.6663 7.5H9.19125V10.8825H14.0438C13.8263 11.9925 13.1888 12.93 12.2438 13.5675V15.8175H15.1388C16.8338 14.25 17.8088 11.94 17.8088 9.2025Z" fill="#BBBBBB"/>
<path d="M9.19125 18C11.6213 18 13.6538 17.19 15.1388 15.8175L12.2438 13.5675C11.4338 14.1075 10.4063 14.4375 9.19125 14.4375C6.84375 14.4375 4.85625 12.855 4.14375 10.7175H1.15875V13.035C2.63625 15.975 5.67375 18 9.19125 18Z" fill="#BBBBBB"/>
<path d="M4.14375 10.7175C3.95625 10.1775 3.85875 9.59999 3.85875 8.99999C3.85875 8.39999 3.96375 7.8225 4.14375 7.2825V4.965H1.15875C0.543753 6.18 0.191254 7.54499 0.191254 8.99999C0.191254 10.455 0.543753 11.82 1.15875 13.035L4.14375 10.7175Z" fill="#BBBBBB"/>
<path d="M9.19125 3.5625C10.5188 3.5625 11.7038 4.02 12.6413 4.9125L15.2063 2.3475C13.6538 0.892501 11.6213 0 9.19125 0C5.67375 0 2.63625 2.025 1.15875 4.965L4.14375 7.2825C4.85625 5.145 6.84375 3.5625 9.19125 3.5625Z" fill="#BBBBBB"/>
</svg>
