<svg width="18" height="18" viewBox="0 0 18 18" fill="none" xmlns="http://www.w3.org/2000/svg">
<path fill-rule="evenodd" clip-rule="evenodd" d="M17.587 4.47385C17.7121 4.0566 17.587 3.75 16.9915 3.75H15.0222C14.5215 3.75 14.2907 4.01486 14.1655 4.30692C14.1655 4.30692 13.1641 6.74783 11.7455 8.33336C11.2865 8.79232 11.0779 8.93835 10.8275 8.93835C10.7024 8.93835 10.5212 8.79232 10.5212 8.3751V4.47386C10.5212 3.97315 10.3759 3.75 9.95857 3.75H6.8641C6.5512 3.75 6.36302 3.98239 6.36302 4.20263C6.36302 4.67729 7.0723 4.78675 7.14541 6.12196V9.02183C7.14541 9.65762 7.0306 9.77289 6.78024 9.77289C6.11267 9.77289 4.4888 7.32108 3.5257 4.51556C3.33695 3.97027 3.14764 3.75 2.64437 3.75H0.675162C0.112532 3.75 0 4.01486 0 4.30692C0 4.82849 0.667605 7.41543 3.10848 10.8368C4.73572 13.1734 7.02839 14.44 9.11462 14.44C10.3663 14.44 10.5212 14.1587 10.5212 13.6741V11.9081C10.5212 11.3455 10.6398 11.2332 11.0362 11.2332C11.3282 11.2332 11.8289 11.3793 12.9972 12.5058C14.3324 13.841 14.5525 14.44 15.3036 14.44H17.2728C17.8354 14.44 18.1167 14.1587 17.9544 13.6035C17.7768 13.0502 17.1394 12.2474 16.2935 11.2958C15.8345 10.7534 15.1461 10.1693 14.9374 9.87715C14.6453 9.50167 14.7288 9.33473 14.9374 9.00096C14.9374 9.00096 17.3366 5.62126 17.587 4.47385Z" fill="#BBBBBB"/>
</svg>
